<!-- Anna-Maria kitchen — vector mark (layers) -->
<svg viewBox="0 0 200 200" fill="none" xmlns="http://www.w3.org/2000/svg">
  <g id="logo-fill">
    <circle cx="100" cy="100" r="99" fill="#f5f0e8"/>
  </g>
  <g id="logo-stroke-group">
    <circle id="logo-stroke-outer" cx="100" cy="100" r="99" stroke="#1a2840" stroke-width="1.5"/>
    <circle id="logo-stroke-inner" cx="100" cy="100" r="94.5" stroke="#1a2840" stroke-width="0.75"/>
  </g>
  <g id="logo-utensils">
    <g id="logo-spoon">
      <path d="M129 166.5 L100.5 137.5" stroke="#1a2840" stroke-width="2.35" stroke-linecap="round"/>
      <path d="M100.5 137.5
               C106.2 122.8 119.5 117.2 129.2 122.8
               C138.2 127.8 136.5 141.2 125.8 143.2
               C117.2 144.8 106.8 139.5 100.5 137.5 Z" fill="#1a2840"/>
    </g>
    <g id="logo-whisk">
      <path d="M71 166.5 L99.5 137.5" stroke="#1a2840" stroke-width="2.35" stroke-linecap="round"/>
      <path d="M88 133.5 C82.5 127.5 76.5 120 71 112" stroke="#1a2840" stroke-width="1.12" stroke-linecap="round"/>
      <path d="M90.5 131.5 C85.8 124.5 81.5 116.5 77.5 108" stroke="#1a2840" stroke-width="1.12" stroke-linecap="round"/>
      <path d="M92.8 129.5 C88.8 121.8 85.2 113.8 82 105.5" stroke="#1a2840" stroke-width="1.12" stroke-linecap="round"/>
      <path d="M94.8 127.5 C91.5 119.5 88.5 111.2 86 102.5" stroke="#1a2840" stroke-width="1.12" stroke-linecap="round"/>
      <path d="M96.5 125.8 C94 117.5 91.8 109 90 100.5" stroke="#1a2840" stroke-width="1.12" stroke-linecap="round"/>
      <path d="M98 124.2 C96.2 116 94.5 107.5 93 99" stroke="#1a2840" stroke-width="1.12" stroke-linecap="round"/>
    </g>
  </g>
  <text id="logo-title" x="100" y="76" text-anchor="middle" fill="#1a2840" font-family="'Cormorant Garamond', Georgia, serif" font-size="23.5" font-weight="500">Anna-Maria</text>
  <text id="logo-subtitle" x="100" y="94" text-anchor="middle" fill="#1a2840" font-family="Inter, system-ui, sans-serif" font-size="9.5" letter-spacing="0.55">kitchen</text>
</svg>
